<?xml version="1.0" encoding="UTF-8"?>
<svg id="Layer_1" data-name="Layer 1" xmlns="http://www.w3.org/2000/svg" viewBox="0 0 232.66 320.02">
  <ellipse cx="85.91" cy="91.35" rx="29.6" ry="34.34" transform="translate(-3.22 3.14) rotate(-2.05)"/>
  <ellipse cx="130.59" cy="250.58" rx="32.69" ry="47.08" transform="translate(-89.87 73.83) rotate(-23.75)"/>
  <ellipse cx="95.01" cy="147.51" rx="19.73" ry="31.57" transform="translate(-5.23 3.5) rotate(-2.05)"/>
  <ellipse cx="110.84" cy="205.74" rx="16.44" ry="17.89" transform="translate(-7.3 4.11) rotate(-2.05)"/>
  <ellipse cx="104.03" cy="183.57" rx="16.09" ry="29.22" transform="translate(-26.73 17.97) rotate(-8.75)"/>
  <path d="M78.36,161.85s-25.05,2.57-45.19-7.99c0,0-7.38-4.68-10.15-6.02s22.92,27.47,69.28,23.34l-13.94-9.33Z"/>
  <path d="M54.25,48.65s-4.24-20.08-.97-25.2c3.27-5.12,7.78.65,3.52,23.82,0,0-7.06,17.7-4.97,18.88,2.1,1.18,26.11-4.61,31.22-6.61s-22.46,13.66-31.43,10.91c-8.97-2.76,1.64-20.17,2.63-21.79Z"/>
  <ellipse cx="55.05" cy="34.09" rx="4.78" ry="14.44" transform="translate(-1.19 2) rotate(-2.05)"/>
  <path d="M101.39,34.29s-7.42-19.14-12.95-21.64c-5.53-2.5-6.16,4.79,10.07,21.87,0,0,15.58,10.97,14.47,13.1-1.11,2.13-24.39,10.4-29.76,11.52-5.37,1.12,26.28-.83,32.28-8.04,6.01-7.21-12.39-16-14.11-16.82Z"/>
  <ellipse cx="92.75" cy="22.53" rx="4.78" ry="14.44" transform="translate(1.67 51.08) rotate(-31.06)"/>
  <ellipse cx="25.19" cy="149.63" rx="3.95" ry="11.49" transform="translate(-108.54 77.94) rotate(-52.25)"/>
  <path d="M75.29,140.08s-20.52-14.59-28.7-35.81c0,0-2.46-8.39-3.66-11.22-1.2-2.83-.88,35.76,36.69,63.23l-4.33-16.2Z"/>
  <ellipse cx="43.38" cy="95.83" rx="3.95" ry="11.49" transform="translate(-17.48 10.03) rotate(-10.99)"/>
  <path d="M100.59,113.2s19.86-15.47,27.11-37.03c0,0,2.1-8.48,3.17-11.37,1.07-2.88,2.45,35.69-33.89,64.77l3.61-16.37Z"/>
  <ellipse cx="130.53" cy="67.6" rx="11.49" ry="3.95" transform="translate(44.4 186.72) rotate(-81.51)"/>
  <path d="M110.75,141.28s18.31-17.28,23.48-39.43c0,0,1.28-8.65,2.08-11.62.79-2.97,5.81,35.3-27.61,67.69l2.05-16.64Z"/>
  <ellipse cx="136.24" cy="93.05" rx="11.49" ry="3.95" transform="translate(36.05 224.14) rotate(-86.94)"/>
  <ellipse cx="214.19" cy="200.81" rx="3.95" ry="9.85" transform="translate(-75.35 249.48) rotate(-52.7)"/>
  <ellipse cx="202.67" cy="241.84" rx="3.95" ry="9.85" transform="translate(-112.53 256.48) rotate(-52.7)"/>
  <ellipse cx="75.62" cy="300.67" rx="9.85" ry="3.95" transform="translate(-228.66 360.15) rotate(-86.94)"/>
  <path d="M149.72,162.95c-2.11-.28-4.26-.32-6.38-.24-1.87.07-3.74.2-5.6.4-4.14.44-8.25,1.15-12.3,2.12-8.1,1.95-15.94,4.97-23.24,8.96,4.7.88,9.41,1.76,14.11,2.63.73.14,1.47.27,2.2.19.9-.1,1.72-.51,2.54-.91,4.89-2.39,9.94-4.15,15.08-5.89,5.19-1.75,10.03-1.06,15.22.63,17.94,5.86,35.51,12.76,51.36,23.22,0,0,14.55,8.87,14.56,8.88-1.77-1.08-3.4-3.82-4.92-5.27-4.44-4.23-9.47-8.22-14.87-11.15-13.84-7.52-26.9-15.89-41.61-21.88-.3-.12-.6-.24-.89-.36-1.69-.68-3.46-1.1-5.26-1.34Z"/>
  <ellipse cx="64.83" cy="288.25" rx="3.95" ry="10.3" transform="translate(-37.58 11.12) rotate(-7.61)"/>
  <path d="M62.72,212.88c.8-1.97,1.83-3.85,2.95-5.66.99-1.59,2.03-3.15,3.12-4.67,2.43-3.38,5.08-6.6,7.94-9.63,5.71-6.06,12.21-11.38,19.3-15.75-1.57,4.52-3.14,9.04-4.7,13.56-.24.7-.49,1.41-.93,2.01-.53.73-1.3,1.24-2.05,1.75-4.5,3.07-8.53,6.58-12.59,10.19-4.1,3.64-5.89,8.19-6.99,13.54-3.8,18.48-6.5,37.17-5.27,56.11,0,0,.5,17.03.5,17.05-.06-2.07-1.63-4.84-2.14-6.88-1.48-5.95-2.45-12.3-2.32-18.44.32-15.75-.48-31.24,1.61-46.99.04-.32.09-.64.13-.95.25-1.81.76-3.55,1.44-5.23Z"/>
  <path d="M116.06,192.31s17.61-1.68,22.54.14,64.62,47.46,65.66,48.62-7.66-.88-14.29-6.27c-6.63-5.39-48.23-33.24-51.53-36.41-3.29-3.16-17.99-1.75-17.99-1.75l-4.39-4.34Z"/>
  <path d="M95.25,206.3s-12.78,12.23-14.63,17.15c-1.85,4.92-6.3,79.93-6.1,81.47.2,1.54,4.34-6.37,4.59-14.91.26-8.54,6.36-58.23,6.11-62.79-.24-4.56,10.44-14.76,10.44-14.76l-.41-6.16Z"/>
</svg>