<?xml version="1.0" encoding="UTF-8"?>
<svg id="Layer_2" data-name="Layer 2" xmlns="http://www.w3.org/2000/svg" viewBox="0 0 275.36 241.69">
  <ellipse cx="216.03" cy="147.72" rx="33.43" ry="40.33" transform="translate(-13.67 273.15) rotate(-63)"/>
  <ellipse cx="86.1" cy="81.02" rx="39.55" ry="44.77" transform="translate(-25.18 120.96) rotate(-63)"/>
  <ellipse cx="133.67" cy="107.23" rx="14.5" ry="16.43" transform="translate(-22.56 177.65) rotate(-63)"/>
  <ellipse cx="158.02" cy="120.9" rx="14.5" ry="16.43" transform="translate(2.06 244.45) rotate(-75.8)"/>
  <ellipse cx="177.02" cy="131.86" rx="9.62" ry="10.9" transform="translate(5.78 271.13) rotate(-75.8)"/>
  <path d="M171,112.76s18.95-26.78,25.38-28.16,43.65,13.6,67.54,7.72c0,0,2.76,12.32-57.44,0,0,0-9.19-3.13-10.57-2.21s-24.92,27.57-24.92,27.57v-4.92Z"/>
  <path d="M154.47,134.95v37.75s4.96,7.93,11.72,15.16c6.76,7.24,18.48,32.74,18.82,42.39s17.58-9.99-23.78-54.45v-43.95l-6.76,3.1Z"/>
  <path d="M158.02,107.23s7.26-17.24,8.16-31.71c0,0,36.4-28.95,32.95-42.04,0,0-11.11,19.3-32.95,35.5,0,0-7.02,7.6-10.47,38.26h2.3Z"/>
  <path d="M142.38,124.2c1.55,1.14-.63,6.64-1.1,7.72-3.67,8.42-11.87,13.93-18.94,19.24-.48.36-.97.73-1.33,1.21-.48.62-.72,1.39-.95,2.13-2.5,8.11-8.09,19.16-7.41,27.76.34,4.23,1.38,30.08-5.51,33.52,3.63-1.82,6.13-3.87,7.69-7.73,3.38-8.36,2.7-17.49,3.03-26.32.33-9.01,3.79-17.33,6.47-25.88.16-.51.33-1.04.68-1.45.32-.37.75-.61,1.18-.84,10.26-5.6,18.27-13.36,23.55-23.94,0,0-7.34-5.42-7.34-5.42Z"/>
  <path d="M51.06,19.86c.2.12.44.17.67.23,11.55,2.73,19.21,3.74,19.21,23.38,0-.82,1.73-.23,1.95-1.03.63-2.26.01-6.42,0-8.77-.03-5.17-2.48-10-6.72-12.98-3.94-2.78-9.02-3.98-13.77-4.34-.48-.04-.99-.06-1.41.18-1.05.6-.95,2.7.06,3.33Z"/>
  <path d="M16.6,95.9c.23-.01.47.04.7.1,11.53,2.81,18.81,5.39,27.73-12.11-.37.73,1.44,1,1.27,1.81-.47,2.3-2.91,5.73-3.98,7.82-2.37,4.6-6.75,7.78-11.88,8.52-4.77.69-9.84-.55-14.24-2.38-.44-.19-.91-.4-1.17-.8-.66-1.01.37-2.84,1.57-2.94Z"/>
  <path d="M124.29,118.4s3.4,7.55-21.64,9.16c0,0-32.39-1.38-32.39,2.53,0,2.82,9.93,2.47,11.69,2.32,6.87-.57,13.73-.16,20.61-.31,5.38-.11,10.86-.67,15.95-2.5,5.52-1.99,8.85-6.01,13.31-9.62l-7.54-1.58Z"/>
  <path d="M135.79,94.67s3.57-9.47,4.31-18.4c.75-8.93-27.85-28.47-28.52-35.02-.67-6.54,2.34-10.84,2.34-10.84,0,0,3.22-3.19,1.86,6.21l.11,5.33s28.12,25.96,29.25,30.48c1.13,4.51-2.14,18.17-4.15,24.58l-5.2-2.34Z"/>
  <ellipse cx="47.93" cy="16.32" rx="4.74" ry="6.72" transform="translate(14.27 54.15) rotate(-67.14)"/>
  <ellipse cx="14.82" cy="96" rx="4.74" ry="6.72" transform="translate(-79.4 72.37) rotate(-67.14)"/>
</svg>