<?xml version="1.0" encoding="UTF-8"?>
<svg id="Layer_1" data-name="Layer 1" xmlns="http://www.w3.org/2000/svg" viewBox="0 0 295.75 300">
  <ellipse cx="83.32" cy="103.33" rx="29.6" ry="34.34" transform="translate(-47.13 78.77) rotate(-40.46)"/>
  <ellipse cx="217.25" cy="200.35" rx="32.69" ry="47.08" transform="translate(-61.37 298.88) rotate(-62.16)"/>
  <ellipse cx="125.33" cy="141.68" rx="19.73" ry="31.57" transform="translate(-61.97 115.21) rotate(-40.46)"/>
  <ellipse cx="173.91" cy="177.48" rx="16.44" ry="17.89" transform="translate(-73.58 155.29) rotate(-40.46)"/>
  <ellipse cx="154.81" cy="164.34" rx="16.09" ry="29.22" transform="translate(-70.96 166.11) rotate(-47.16)"/>
  <path d="M121.19,163.27s-18.03,17.57-40.38,21.81c0,0-8.69.92-11.69,1.59s35.02,7.29,68.79-24.75l-16.71,1.35Z"/>
  <path d="M31.98,89.54s-15.8-13.11-16.42-19.15,6.5-4.32,17.55,16.48c0,0,5.46,18.26,7.84,17.88,2.38-.38,17.6-19.84,20.36-24.57,2.77-4.74-9.12,24.66-17.86,28.07s-11.25-16.83-11.48-18.71Z"/>
  <ellipse cx="23.56" cy="77.62" rx="4.78" ry="14.44" transform="translate(-44.73 33.85) rotate(-40.46)"/>
  <path d="M60,49s-17.7-10.39-23.6-8.91c-5.89,1.48-1.85,7.58,21.48,10.89,0,0,19.02-1.09,19.48,1.27.45,2.36-12.65,23.3-16.16,27.51-3.51,4.21,20.08-16.97,20.31-26.35.23-9.38-19.65-4.84-21.5-4.41Z"/>
  <ellipse cx="45.93" cy="45.15" rx="4.78" ry="14.44" transform="translate(-12.46 72.32) rotate(-69.46)"/>
  <ellipse cx="71.94" cy="186.71" rx="11.49" ry="3.95" transform="translate(-2.13 .84) rotate(-.66)"/>
  <path d="M105.26,148.11s-25.14,1.32-44.74-10.23c0,0-7.14-5.04-9.84-6.52-2.7-1.48,21.52,28.57,68.03,26.76l-13.45-10.01Z"/>
  <ellipse cx="52.77" cy="133.26" rx="3.95" ry="11.49" transform="translate(-82.75 86.6) rotate(-49.4)"/>
  <path d="M108.39,111.33s5.96-24.46-1.76-45.86c0,0-3.63-7.95-4.58-10.88-.95-2.93,24.09,26.45,13.68,71.81l-7.34-15.08Z"/>
  <ellipse cx="103.53" cy="57" rx="3.95" ry="11.49" transform="translate(-14.63 59.23) rotate(-29.92)"/>
  <path d="M133.8,127.03s3.62-24.92-6.09-45.48c0,0-4.36-7.57-5.59-10.39-1.22-2.82,26.48,24.05,20.42,70.19l-8.73-14.31Z"/>
  <ellipse cx="123.82" cy="73.4" rx="3.95" ry="11.49" transform="translate(-19.64 85.16) rotate(-35.35)"/>
  <ellipse cx="251.83" cy="109.42" rx="9.85" ry="3.95" transform="translate(-2.05 4.86) rotate(-1.1)"/>
  <ellipse cx="268.3" cy="148.73" rx="9.85" ry="3.95" transform="translate(-2.81 5.18) rotate(-1.1)"/>
  <ellipse cx="205.28" cy="273.76" rx="3.95" ry="9.85" transform="translate(-120.54 169.23) rotate(-35.35)"/>
  <path d="M177.8,119.8c-1.83,1.09-3.53,2.4-5.15,3.78-1.43,1.22-2.81,2.48-4.14,3.79-2.97,2.91-5.75,6.03-8.32,9.3-5.13,6.56-9.4,13.79-12.65,21.46,4.23-2.23,8.46-4.47,12.69-6.7.65-.35,1.32-.7,1.85-1.22.64-.63,1.03-1.47,1.42-2.29,2.35-4.91,5.21-9.43,8.16-13.98,2.98-4.6,7.2-7.07,12.32-8.96,17.7-6.55,35.75-12.06,54.67-13.71l16.92-2.09c-2.06.25-5.03-.88-7.12-1.07-6.11-.56-12.53-.56-18.58.49-15.52,2.7-30.95,4.26-46.2,8.7-.31.09-.62.18-.92.27-1.75.52-3.39,1.29-4.95,2.22Z"/>
  <ellipse cx="189.11" cy="270.72" rx="3.95" ry="10.3" transform="translate(-137 218.76) rotate(-46.01)"/>
  <path d="M140.64,212.97c-.6-2.04-.96-4.16-1.2-6.27-.22-1.86-.37-3.73-.45-5.6-.2-4.16-.12-8.33.24-12.48.7-8.3,2.5-16.5,5.34-24.33,1.58,4.52,3.16,9.03,4.74,13.55.24.7.49,1.41.52,2.15.04.9-.25,1.78-.51,2.64-1.62,5.2-2.6,10.45-3.54,15.8-.95,5.4.47,10.08,2.93,14.95,8.51,16.84,17.99,33.17,30.73,47.25,0,0,10.97,13.04,10.98,13.05-1.34-1.59-4.29-2.78-5.95-4.06-4.86-3.74-9.56-8.11-13.28-13.01-9.53-12.54-19.78-24.18-27.93-37.82-.16-.28-.33-.55-.49-.83-.93-1.57-1.61-3.25-2.12-4.99Z"/>
  <path d="M169.66,163.72s12.76-12.25,17.75-13.9,80.12-2.95,81.65-2.68-6.55,4.07-15.09,3.97c-8.54-.1-58.45,3.91-62.99,3.48-4.54-.43-15.18,9.81-15.18,9.81l-6.13-.67Z"/>
  <path d="M162.05,187.6s-2.42,17.52-.81,22.53c1.61,5.01,44.72,66.55,45.83,67.64,1.11,1.09-.56-7.69-5.66-14.54-5.1-6.85-31.19-49.59-34.22-53.01-3.02-3.42-.99-18.05-.99-18.05l-4.15-4.57Z"/>
</svg>