<?xml version="1.0" encoding="UTF-8"?>
<svg id="Layer_1" data-name="Layer 1" xmlns="http://www.w3.org/2000/svg" viewBox="0 0 274.44 300">
  <ellipse cx="192.68" cy="91.89" rx="34.34" ry="29.6" transform="translate(-18.5 123.09) rotate(-33.9)"/>
  <ellipse cx="81" cy="213.86" rx="47.08" ry="32.69" transform="translate(-141.22 159.88) rotate(-55.6)"/>
  <ellipse cx="149.78" cy="129.25" rx="31.57" ry="19.73" transform="translate(-46.63 105.51) rotate(-33.9)"/>
  <ellipse cx="108.67" cy="173.42" rx="17.89" ry="16.44" transform="translate(-78.26 90.09) rotate(-33.9)"/>
  <ellipse cx="123.9" cy="155.95" rx="29.22" ry="16.09" transform="translate(-71.66 118.18) rotate(-40.6)"/>
  <path d="M128.81,122.67s-15.4-19.92-17.05-42.6c0,0,.08-8.74-.24-11.8s-11.24,33.96,16.73,71.16l.57-16.76Z"/>
  <path d="M212.24,42.46s14.82-14.2,20.9-14.12c6.07.08,3.55,6.95-18.38,15.56,0,0-18.76,3.34-18.66,5.74s17.7,19.75,22.09,23.03-23.46-11.87-25.85-20.94,18-9.25,19.9-9.26Z"/>
  <ellipse cx="225.04" cy="35.46" rx="14.44" ry="4.78" transform="translate(18.48 131.55) rotate(-33.9)"/>
  <path d="M249.32,74.93s12.34-16.4,11.55-22.42c-.79-6.02-7.32-2.7-13.27,20.09,0,0-1.09,19.02-3.49,19.21-2.4.18-21.7-15.23-25.49-19.2-3.79-3.97,14.57,21.89,23.86,23.18,9.29,1.3,7.06-18.97,6.84-20.86Z"/>
  <ellipse cx="254.75" cy="61.39" rx="14.44" ry="4.78" transform="translate(84.07 260.22) rotate(-62.91)"/>
  <ellipse cx="111.14" cy="71.06" rx="11.49" ry="3.95" transform="translate(29.03 174.3) rotate(-84.1)"/>
  <path d="M145.68,108.58s1.56-25.13,15.27-43.27c0,0,5.82-6.52,7.6-9.03,1.78-2.51-30.84,18.12-34.35,64.53l11.48-12.22Z"/>
  <ellipse cx="166.43" cy="58.13" rx="11.49" ry="3.95" transform="translate(4.87 128.68) rotate(-42.84)"/>
  <path d="M181.86,115.88s23.62,8.71,45.76,3.49c0,0,8.31-2.7,11.33-3.31,3.02-.61-29.02,20.91-72.9,5.39l15.82-5.57Z"/>
  <ellipse cx="236.4" cy="117.26" rx="11.49" ry="3.95" transform="translate(-27.12 103.35) rotate(-23.36)"/>
  <path d="M163.37,139.34s24.34,6.44,45.88-.86c0,0,8.02-3.47,10.96-4.37,2.94-.89-26.91,23.56-72.06,12.27l15.22-7.04Z"/>
  <ellipse cx="217.79" cy="135.54" rx="11.49" ry="3.95" transform="translate(-38.36 121.64) rotate(-28.79)"/>
  <ellipse cx="167.39" cy="258.61" rx="9.85" ry="3.95" transform="translate(-105.97 400.64) rotate(-84.54)"/>
  <ellipse cx="126.45" cy="270.48" rx="9.85" ry="3.95" transform="translate(-154.83 370.63) rotate(-84.54)"/>
  <ellipse cx="9.44" cy="193.59" rx="9.85" ry="3.95" transform="translate(-92.07 28.48) rotate(-28.79)"/>
  <path d="M165.53,183.88c-.87-1.94-1.98-3.78-3.16-5.54-1.05-1.56-2.14-3.07-3.3-4.55-2.56-3.29-5.33-6.41-8.29-9.33-5.93-5.85-12.63-10.92-19.88-15.02,1.74,4.46,3.47,8.92,5.21,13.37.27.69.54,1.39,1,1.97.56.71,1.35,1.2,2.11,1.68,4.61,2.9,8.77,6.25,12.96,9.71,4.23,3.49,6.2,7.96,7.5,13.27,4.49,18.33,7.89,36.9,7.37,55.88,0,0,.14,17.04.14,17.05-.02-2.07,1.45-4.9,1.88-6.95,1.26-6,1.99-12.38,1.63-18.51-.91-15.73-.7-31.23-3.37-46.89-.05-.32-.11-.63-.16-.95-.31-1.8-.89-3.52-1.64-5.17Z"/>
  <ellipse cx="14.3" cy="177.88" rx="10.3" ry="3.95" transform="translate(-109.77 49.62) rotate(-39.45)"/>
  <path d="M77.21,136.31c2.09-.36,4.24-.48,6.36-.48,1.87,0,3.74.06,5.62.19,4.15.28,8.29.84,12.37,1.66,8.16,1.65,16.11,4.36,23.56,8.08-4.67,1.05-9.33,2.11-14,3.16-.72.16-1.46.33-2.19.27-.9-.06-1.74-.45-2.57-.81-4.98-2.2-10.09-3.77-15.29-5.32-5.26-1.56-10.07-.69-15.19,1.2-17.7,6.53-35,14.09-50.45,25.13,0,0-14.2,9.41-14.22,9.42,1.73-1.15,3.25-3.94,4.71-5.45,4.27-4.4,9.15-8.57,14.44-11.7,13.55-8.04,26.28-16.89,40.76-23.43.29-.13.59-.26.88-.39,1.66-.74,3.41-1.23,5.2-1.54Z"/>
  <path d="M122.83,170.77s10.72,14.07,11.78,19.22-6.22,79.93-6.66,81.43-3.29-6.97-2.22-15.45c1.08-8.48,2.79-58.51,3.74-62.98.95-4.46-8.01-16.21-8.01-16.21l1.37-6.02Z"/>
  <path d="M99.97,160.48s-17.13-4.4-22.29-3.38c-5.16,1.02-71.22,36.82-72.43,37.8s7.7.32,15.09-3.97,52.82-25.33,56.57-27.94,18.04,1.08,18.04,1.08l5.01-3.6Z"/>
</svg>