<?xml version="1.0" encoding="UTF-8"?>
<svg id="Layer_2" data-name="Layer 2" xmlns="http://www.w3.org/2000/svg" viewBox="0 0 254.01 238.87">
  <ellipse cx="70.9" cy="167.18" rx="36.67" ry="30.39" transform="translate(-91.08 85.09) rotate(-40.14)"/>
  <ellipse cx="172.68" cy="81.88" rx="40.71" ry="35.96" transform="translate(-12.11 130.61) rotate(-40.14)"/>
  <ellipse cx="133.91" cy="112.48" rx="14.94" ry="13.18" transform="translate(-40.97 112.83) rotate(-40.14)"/>
  <ellipse cx="113.86" cy="128.05" rx="14.94" ry="13.18" transform="translate(-56.94 141.77) rotate(-52.95)"/>
  <ellipse cx="97.97" cy="140.1" rx="9.91" ry="8.75" transform="translate(-72.87 133.87) rotate(-52.95)"/>
  <path d="M116.1,141.8s15.75,25.34,14.63,31.21-26.81,31.77-30.32,53.86c0,0-11.29-2.04,20.28-48.12,0,0,5.86-6.6,5.58-8.08s-14.3-30.62-14.3-30.62l4.12,1.74Z"/>
  <path d="M103.34,120.11l-31.63-13.33s-8.39,1.35-16.84,4.46-33.96,3.92-42.16.8c-8.21-3.12,2.17,18.25,54.02-.69l36.82,15.52-.21-6.76Z"/>
  <path d="M125.31,132.88s11.88,12.17,23.69,18.04c0,0,11.4,40.72,23.59,42.46,0,0-12.24-16.13-18.1-40.15,0,0-3.89-8.57-28.36-22.28l-.81,1.93Z"/>
  <path d="M116.62,113.78c-1.5.89-5.34-2.87-6.08-3.65-5.76-6.05-7.48-14.87-9.43-22.66-.13-.53-.27-1.07-.54-1.54-.35-.62-.91-1.09-1.45-1.55-5.91-4.96-13.2-13.55-20.64-16.02-3.67-1.21-25.69-9.47-26.14-16.46.24,3.68,1.08,6.51,3.76,9.17,5.81,5.79,13.7,8.44,20.98,11.83,7.43,3.46,13.18,9.3,19.4,14.56.37.32.75.64.97,1.08.2.39.24.84.29,1.28,1.06,10.58,4.74,20.03,11.74,28.18,0,0,7.13-4.23,7.14-4.24Z"/>
  <path d="M236.29,74.12c-.17.13-.3.31-.43.48-6.37,8.72-9.92,14.78-26.37,7.84.69.29-.42,1.53.18,2,1.67,1.32,5.38,2.28,7.35,3.1,4.34,1.8,9.25,1.45,13.25-1.04,3.72-2.32,6.52-6.15,8.5-10,.2-.39.4-.81.34-1.25-.13-1.09-1.92-1.75-2.82-1.12Z"/>
  <path d="M184.76,18.39c-.07.2-.2.38-.33.55-6.43,8.67-11.16,13.86.35,27.51-.48-.57-1.34.85-1.96.43-1.76-1.2-3.77-4.46-5.14-6.1-3.01-3.61-4.13-8.4-2.94-12.96,1.11-4.24,3.93-8.06,7.02-11.09.31-.31.66-.62,1.09-.7,1.08-.2,2.24,1.32,1.91,2.35Z"/>
  <path d="M127.87,100.67s-7.53.18-.03-21.37c0,0,12.59-26.65,9.32-28.03-2.36-1-5.58,7.45-6.07,8.98-1.95,5.96-4.71,11.56-7.02,17.38-1.81,4.55-3.27,9.33-3.54,14.25-.29,5.33,1.91,9.54,3.36,14.55l3.98-5.76Z"/>
  <path d="M143.69,118.69s6.67,6.33,13.89,10.11c7.22,3.78,33.69-13.28,39.41-11.53,5.72,1.75,8.25,5.79,8.25,5.79,0,0,1.54,3.82-5.86-.63l-4.5-1.79s-31.68,14.39-35.86,13.74-14.47-8.21-19.13-12.16l3.8-3.53Z"/>
  <ellipse cx="240.36" cy="72.75" rx="6.11" ry="4.31" transform="translate(17.5 188.5) rotate(-44.29)"/>
  <ellipse cx="185.3" cy="16.87" rx="6.11" ry="4.31" transform="translate(40.87 134.17) rotate(-44.29)"/>
</svg>