<?xml version="1.0" encoding="UTF-8"?>
<svg id="Layer_2" data-name="Layer 2" xmlns="http://www.w3.org/2000/svg" viewBox="0 0 254.01 238.87">
  <ellipse cx="73.94" cy="69.32" rx="30.39" ry="36.67" transform="translate(-27.36 72.71) rotate(-45.07)"/>
  <ellipse cx="167.66" cy="163.4" rx="35.96" ry="40.71" transform="translate(-66.43 166.7) rotate(-45.07)"/>
  <ellipse cx="133.85" cy="127.4" rx="13.18" ry="14.94" transform="translate(-50.88 132.19) rotate(-45.07)"/>
  <ellipse cx="116.61" cy="108.77" rx="13.18" ry="14.94" transform="translate(-37.51 149.68) rotate(-57.88)"/>
  <ellipse cx="103.25" cy="93.97" rx="8.75" ry="9.91" transform="translate(-31.24 131.44) rotate(-57.88)"/>
  <path d="M103.1,112.18s-23.89,17.87-29.84,17.26-33.95-23.99-56.27-25.58c0,0,1.06-11.43,49.69,16.08,0,0,7.07,5.28,8.52,4.87s29.28-16.87,29.28-16.87l-1.38,4.26Z"/>
  <path d="M123.62,97.6l10.57-32.66s-2.07-8.24-5.89-16.4-6.82-33.49-4.42-41.94c2.4-8.44-18,3.73,5.33,53.76l-12.3,38.02,6.72-.79Z"/>
  <path d="M112.79,120.59s-11.11,12.88-15.94,25.15c0,0-39.59,14.85-40.28,27.15,0,0,15.02-13.58,38.44-21.48,0,0,8.2-4.61,19.76-30.17l-1.99-.65Z"/>
  <path d="M131.07,110.29c-1.02-1.42,2.4-5.56,3.11-6.37,5.53-6.26,14.17-8.73,21.77-11.34.52-.18,1.04-.36,1.49-.67.59-.4,1.01-1,1.42-1.58,4.44-6.32,12.36-14.31,14.18-21.94.89-3.76,7.23-26.4,14.15-27.46-3.65.55-6.39,1.63-8.82,4.53-5.27,6.29-7.24,14.38-9.98,21.92s-8.13,13.93-12.84,20.58c-.28.4-.58.81-.99,1.06-.38.23-.82.32-1.25.4-10.44,1.97-19.55,6.44-27.07,14.12,0,0,4.83,6.74,4.83,6.75Z"/>
  <path d="M180.86,226.11c-.14-.16-.33-.27-.51-.38-9.23-5.59-15.57-8.61-10.07-25.6-.23.71-1.56-.28-1.98.35-1.17,1.78-1.81,5.55-2.45,7.59-1.42,4.48-.65,9.34,2.18,13.11,2.63,3.51,6.69,5.97,10.69,7.61.41.17.84.33,1.27.24,1.07-.22,1.58-2.07.88-2.9Z"/>
  <path d="M231.95,169.98c-.21-.05-.39-.17-.58-.28-9.19-5.66-14.77-9.93-27.38,2.71.53-.53-.96-1.26-.59-1.92,1.05-1.86,4.12-4.14,5.63-5.65,3.34-3.31,8.01-4.84,12.66-4.04,4.32.74,8.36,3.23,11.65,6.05.33.29.67.6.79,1.02.29,1.06-1.12,2.35-2.18,2.11Z"/>
  <path d="M145.09,120.37s-.83-7.49,21.29-1.87c0,0,27.63,10.26,28.73,6.88.79-2.44-7.9-4.92-9.47-5.28-6.11-1.43-11.92-3.7-17.92-5.5-4.69-1.41-9.58-2.46-14.5-2.3-5.33.17-9.34,2.72-14.21,4.59l6.08,3.48Z"/>
  <path d="M128.51,137.68s-5.73,7.19-8.88,14.71c-3.15,7.52,16.12,32.43,14.87,38.28-1.25,5.85-5.06,8.72-5.06,8.72,0,0-3.68,1.86.13-5.9l1.4-4.64s-17.06-30.33-16.77-34.55,6.93-15.12,10.47-20.1l3.84,3.48Z"/>
  <ellipse cx="182.58" cy="230.05" rx="4.31" ry="6.11" transform="translate(-110.87 218.01) rotate(-49.21)"/>
  <ellipse cx="233.52" cy="170.39" rx="4.31" ry="6.11" transform="translate(-48.03 235.89) rotate(-49.21)"/>
</svg>