<?xml version="1.0" encoding="UTF-8"?>
<svg id="Layer_1" data-name="Layer 1" xmlns="http://www.w3.org/2000/svg" viewBox="0 0 318.49 212.49">
  <ellipse cx="93.34" cy="103.55" rx="34.34" ry="29.6" transform="translate(-23.45 27.43) rotate(-14.87)"/>
  <ellipse cx="258.67" cy="99.94" rx="32.69" ry="47.08" transform="translate(128.7 344.9) rotate(-83.17)"/>
  <ellipse cx="149.71" cy="95.91" rx="31.57" ry="19.73" transform="translate(-19.6 41.64) rotate(-14.87)"/>
  <ellipse cx="210.03" cy="94.1" rx="17.89" ry="16.44" transform="translate(-17.12 57.07) rotate(-14.87)"/>
  <ellipse cx="186.84" cy="94.04" rx="29.22" ry="16.09" transform="translate(-11.47 27.52) rotate(-8.17)"/>
  <path d="M158.58,75.8s-4.84-24.71-20.81-40.9c0,0-6.63-5.7-8.72-7.96s32.95,13.93,42.5,59.48l-12.98-10.62Z"/>
  <path d="M43.27,85.7s-20.45,1.79-24.39,6.41c-3.95,4.62,2.89,7.25,23.81-3.57,0,0,14.87-11.91,16.61-10.25,1.74,1.66,3.19,26.32,2.77,31.79s6.53-25.47,1.28-33.24-18.82,7.44-20.08,8.86Z"/>
  <ellipse cx="29.57" cy="90.71" rx="14.44" ry="4.78" transform="translate(-22.3 10.63) rotate(-14.87)"/>
  <path d="M43.26,134.98s-20.47-1.53-24.48-6.09c-4-4.56,2.79-7.29,23.86,3.26,0,0,15.03,11.72,16.75,10.03,1.72-1.68,2.85-26.36,2.36-31.82-.49-5.46,6.86,25.38,1.71,33.23-5.15,7.84-18.92-7.19-20.2-8.6Z"/>
  <ellipse cx="29.49" cy="130.14" rx="4.78" ry="14.44" transform="translate(-103.91 126.97) rotate(-75.87)"/>
  <ellipse cx="131.41" cy="28.5" rx="3.95" ry="11.49" transform="translate(32.18 119.24) rotate(-54.68)"/>
  <path d="M136.86,79.21s-19.93-15.39-42.61-17.03c0,0-8.74.08-11.8-.24-3.06-.32,33.95-11.26,71.17,16.69l-16.76.58Z"/>
  <ellipse cx="85.24" cy="61.57" rx="11.49" ry="3.95" transform="translate(-5.91 9.14) rotate(-5.93)"/>
  <path d="M118.51,111.23s-9.02,23.51-27.53,36.71c0,0-7.51,4.48-9.95,6.34-2.45,1.86,34.85-8.05,52.1-51.28l-14.61,8.22Z"/>
  <ellipse cx="83.61" cy="153.16" rx="11.49" ry="3.95" transform="translate(-57.64 50.7) rotate(-25.42)"/>
  <path d="M148.34,112.78s-11.2,22.55-30.88,33.94c0,0-7.9,3.74-10.51,5.37-2.61,1.62,35.46-4.72,56.72-46.12l-15.32,6.81Z"/>
  <ellipse cx="109.62" cy="151.21" rx="11.49" ry="3.95" transform="translate(-45.08 46.57) rotate(-19.99)"/>
  <ellipse cx="235.4" cy="194.4" rx="3.95" ry="9.85" transform="translate(-59.93 271.78) rotate(-54.23)"/>
  <ellipse cx="271.31" cy="171.43" rx="3.95" ry="9.85" transform="translate(-26.37 291.37) rotate(-54.23)"/>
  <ellipse cx="290.59" cy="32.76" rx="9.85" ry="3.95" transform="translate(6.3 101.29) rotate(-19.99)"/>
  <path d="M180.42,143.76c-.88-1.93-1.54-3.98-2.09-6.03-.48-1.81-.9-3.64-1.25-5.48-.79-4.09-1.31-8.23-1.55-12.39-.49-8.31.11-16.69,1.8-24.85,2.21,4.24,4.42,8.49,6.63,12.73.34.66.69,1.32.82,2.05.17.89.01,1.8-.13,2.69-.86,5.38-1.08,10.72-1.24,16.14-.16,5.48,1.9,9.91,5.04,14.38,10.83,15.45,22.55,30.25,37.17,42.37,0,0,12.72,11.33,12.73,11.34-1.55-1.38-4.64-2.14-6.47-3.17-5.34-3.01-10.62-6.66-15-10.97-11.23-11.05-23.03-21.11-33.05-33.44-.2-.25-.4-.5-.61-.75-1.14-1.42-2.06-2.99-2.81-4.64Z"/>
  <ellipse cx="275.56" cy="26.06" rx="10.3" ry="3.95" transform="translate(-.58 44.98) rotate(-9.32)"/>
  <path d="M202.85,45.98c-1.65,1.34-3.15,2.88-4.55,4.47-1.24,1.41-2.42,2.86-3.56,4.35-2.53,3.31-4.83,6.79-6.9,10.4-4.14,7.23-7.33,14.99-9.45,23.05,3.87-2.82,7.74-5.63,11.6-8.45.6-.44,1.21-.88,1.65-1.47.54-.72.81-1.61,1.08-2.47,1.62-5.2,3.81-10.07,6.08-15.01,2.29-4.98,6.12-8.02,10.92-10.63,16.58-9.01,33.66-17.04,52.15-21.38,0,0,16.44-4.48,16.45-4.49-2,.55-5.11-.15-7.2-.04-6.12.32-12.48,1.24-18.32,3.15-14.97,4.9-30.02,8.64-44.48,15.22-.29.13-.58.27-.88.4-1.66.76-3.17,1.76-4.58,2.9Z"/>
  <path d="M198.7,103s3.52,17.33,6.69,21.53c3.17,4.19,64.22,48,65.63,48.65s-3.07-7.07-10.16-11.85c-7.08-4.78-45.85-36.46-49.83-38.69-3.98-2.23-6.91-16.7-6.91-16.7l-5.43-2.94Z"/>
  <path d="M206.03,79.02s7.98-15.79,12.15-18.99c4.17-3.2,74.63-29.3,76.16-29.56,1.53-.26-4.83,6.01-12.93,8.74-8.1,2.73-53.86,23.04-58.29,24.13-4.43,1.09-11.08,14.28-11.08,14.28l-6.01,1.4Z"/>
</svg>