<?xml version="1.0" encoding="UTF-8"?>
<svg id="Layer_1" data-name="Layer 1" xmlns="http://www.w3.org/2000/svg" viewBox="0 0 318.49 212.49">
  <ellipse cx="227.68" cy="103.55" rx="29.6" ry="34.34" transform="translate(69.15 297.02) rotate(-75.13)"/>
  <ellipse cx="62.35" cy="99.94" rx="47.08" ry="32.69" transform="translate(-11.44 8.12) rotate(-6.83)"/>
  <ellipse cx="171.31" cy="95.91" rx="19.73" ry="31.57" transform="translate(34.64 236.86) rotate(-75.13)"/>
  <ellipse cx="111" cy="94.1" rx="16.44" ry="17.89" transform="translate(-8.44 177.22) rotate(-75.13)"/>
  <ellipse cx="134.18" cy="94.04" rx="16.09" ry="29.22" transform="translate(22.02 213.49) rotate(-81.83)"/>
  <path d="M162.44,75.8s4.84-24.71,20.81-40.9c0,0,6.63-5.7,8.72-7.96s-32.95,13.93-42.5,59.48l12.98-10.62Z"/>
  <path d="M277.76,85.7s20.45,1.79,24.39,6.41c3.95,4.62-2.89,7.25-23.81-3.57,0,0-14.87-11.91-16.61-10.25-1.74,1.66-3.19,26.32-2.77,31.79s-6.53-25.47-1.28-33.24,18.82,7.44,20.08,8.86Z"/>
  <ellipse cx="291.46" cy="90.71" rx="4.78" ry="14.44" transform="translate(128.96 349.12) rotate(-75.13)"/>
  <path d="M277.77,134.98s20.47-1.53,24.48-6.09c4-4.56-2.79-7.29-23.86,3.26,0,0-15.03,11.72-16.75,10.03-1.72-1.68-2.85-26.36-2.36-31.82.49-5.46-6.86,25.38-1.71,33.23s18.92-7.19,20.2-8.6Z"/>
  <ellipse cx="291.53" cy="130.14" rx="14.44" ry="4.78" transform="translate(-22.95 75.1) rotate(-14.13)"/>
  <ellipse cx="189.62" cy="28.5" rx="11.49" ry="3.95" transform="translate(18.43 114.88) rotate(-35.32)"/>
  <path d="M184.16,79.21s19.93-15.39,42.61-17.03c0,0,8.74.08,11.8-.24,3.06-.32-33.95-11.26-71.17,16.69l16.76.58Z"/>
  <ellipse cx="235.78" cy="61.57" rx="3.95" ry="11.49" transform="translate(150.17 289.72) rotate(-84.07)"/>
  <path d="M202.51,111.23s9.02,23.51,27.53,36.71c0,0,7.51,4.48,9.95,6.34,2.45,1.86-34.85-8.05-52.1-51.28l14.61,8.22Z"/>
  <ellipse cx="237.42" cy="153.16" rx="3.95" ry="11.49" transform="translate(-2.81 301.86) rotate(-64.58)"/>
  <path d="M172.68,112.78s11.2,22.55,30.88,33.94c0,0,7.9,3.74,10.51,5.37,2.61,1.62-35.46-4.72-56.72-46.12l15.32,6.81Z"/>
  <ellipse cx="211.4" cy="151.21" rx="3.95" ry="11.49" transform="translate(-2.96 298.2) rotate(-70.01)"/>
  <ellipse cx="85.62" cy="194.4" rx="9.85" ry="3.95" transform="translate(-97.48 86.71) rotate(-35.77)"/>
  <ellipse cx="49.72" cy="171.43" rx="9.85" ry="3.95" transform="translate(-90.82 61.39) rotate(-35.77)"/>
  <ellipse cx="30.43" cy="32.76" rx="3.95" ry="9.85" transform="translate(-10.75 50.16) rotate(-70.01)"/>
  <path d="M140.6,143.76c.88-1.93,1.54-3.98,2.09-6.03.48-1.81.9-3.64,1.25-5.48.79-4.09,1.31-8.23,1.55-12.39.49-8.31-.11-16.69-1.8-24.85-2.21,4.24-4.42,8.49-6.63,12.73-.34.66-.69,1.32-.82,2.05-.17.89-.01,1.8.13,2.69.86,5.38,1.08,10.72,1.24,16.14.16,5.48-1.9,9.91-5.04,14.38-10.83,15.45-22.55,30.25-37.17,42.37,0,0-12.72,11.33-12.73,11.34,1.55-1.38,4.64-2.14,6.47-3.17,5.34-3.01,10.62-6.66,15-10.97,11.23-11.05,23.03-21.11,33.05-33.44.2-.25.4-.5.61-.75,1.14-1.42,2.06-2.99,2.81-4.64Z"/>
  <ellipse cx="45.46" cy="26.06" rx="3.95" ry="10.3" transform="translate(12.38 66.7) rotate(-80.68)"/>
  <path d="M118.17,45.98c1.65,1.34,3.15,2.88,4.55,4.47,1.24,1.41,2.42,2.86,3.56,4.35,2.53,3.31,4.83,6.79,6.9,10.4,4.14,7.23,7.33,14.99,9.45,23.05-3.87-2.82-7.74-5.63-11.6-8.45-.6-.44-1.21-.88-1.65-1.47-.54-.72-.81-1.61-1.08-2.47-1.62-5.2-3.81-10.07-6.08-15.01-2.29-4.98-6.12-8.02-10.92-10.63-16.58-9.01-33.66-17.04-52.15-21.38,0,0-16.44-4.48-16.45-4.49,2,.55,5.11-.15,7.2-.04,6.12.32,12.48,1.24,18.32,3.15,14.97,4.9,30.02,8.64,44.48,15.22.29.13.58.27.88.4,1.66.76,3.17,1.76,4.58,2.9Z"/>
  <path d="M122.32,103s-3.52,17.33-6.69,21.53c-3.17,4.19-64.22,48-65.63,48.65s3.07-7.07,10.16-11.85c7.08-4.78,45.85-36.46,49.83-38.69,3.98-2.23,6.91-16.7,6.91-16.7l5.43-2.94Z"/>
  <path d="M115,79.02s-7.98-15.79-12.15-18.99c-4.17-3.2-74.63-29.3-76.16-29.56-1.53-.26,4.83,6.01,12.93,8.74,8.1,2.73,53.86,23.04,58.29,24.13,4.43,1.09,11.08,14.28,11.08,14.28l6.01,1.4Z"/>
</svg>